<svg width="32" height="32" viewBox="0 0 32 32" fill="none" xmlns="http://www.w3.org/2000/svg">
  <path fill-rule="evenodd" clip-rule="evenodd"
    d="M10 0C8.89543 0 8 0.895431 8 2V3H6C4.89543 3 4 3.89543 4 5V5C4 6.10457 4.89543 7 6 7H8V9H6C4.89543 9 4 9.89543 4 11V11C4 12.1046 4.89543 13 6 13H8V30C8 31.1046 8.89278 32 9.99735 32C12.4414 32 16.6655 32 20 32C25 32 29 29 29 24C29 19 25 16 20 16C15 16 12 16 12 16V13H19C20.1046 13 21 12.1046 21 11V11C21 9.89543 20.1046 9 19 9H12V7H27C28.1046 7 29 6.10457 29 5V5C29 3.89543 28.1046 3 27 3H12V2C12 0.895431 11.1046 0 10 0V0ZM20 20C23.5 20 25 20.5 25 24C25 27.5 23.5 28 20 28C16.5 28 12 28 12 28V20C12 20 17.7798 20 20 20Z"
    fill="#D9D9D9" />
</svg>