<svg width="32" height="33" viewBox="0 0 32 33" fill="none" xmlns="http://www.w3.org/2000/svg">
  <g clip-path="url(#clip0_8_1139)">
    <path
      d="M16 17.7578C18.1733 17.7578 20.0933 18.2778 21.6533 18.9578C23.0933 19.5978 24 21.0378 24 22.5978V23.4245C24 24.1578 23.4 24.7578 22.6667 24.7578H9.33333C8.6 24.7578 8 24.1578 8 23.4245V22.6111C8 21.0378 8.90667 19.5978 10.3467 18.9711C11.9067 18.2778 13.8267 17.7578 16 17.7578ZM5.33333 18.0911C6.8 18.0911 8 16.8911 8 15.4245C8 13.9578 6.8 12.7578 5.33333 12.7578C3.86667 12.7578 2.66667 13.9578 2.66667 15.4245C2.66667 16.8911 3.86667 18.0911 5.33333 18.0911ZM6.84 19.5578C6.34667 19.4778 5.85333 19.4245 5.33333 19.4245C4.01333 19.4245 2.76 19.7045 1.62667 20.1978C0.64 20.6245 0 21.5845 0 22.6645V23.4245C0 24.1578 0.6 24.7578 1.33333 24.7578H6V22.6111C6 21.5045 6.30667 20.4645 6.84 19.5578ZM26.6667 18.0911C28.1333 18.0911 29.3333 16.8911 29.3333 15.4245C29.3333 13.9578 28.1333 12.7578 26.6667 12.7578C25.2 12.7578 24 13.9578 24 15.4245C24 16.8911 25.2 18.0911 26.6667 18.0911ZM32 22.6645C32 21.5845 31.36 20.6245 30.3733 20.1978C29.24 19.7045 27.9867 19.4245 26.6667 19.4245C26.1467 19.4245 25.6533 19.4778 25.16 19.5578C25.6933 20.4645 26 21.5045 26 22.6111V24.7578H30.6667C31.4 24.7578 32 24.1578 32 23.4245V22.6645ZM16 8.75781C18.2133 8.75781 20 10.5445 20 12.7578C20 14.9711 18.2133 16.7578 16 16.7578C13.7867 16.7578 12 14.9711 12 12.7578C12 10.5445 13.7867 8.75781 16 8.75781Z"
      fill="#DCDCDC"
       />
  </g>
  <defs>
    <clipPath id="clip0_8_1139">
      <rect y="0.757812" width="32" height="32" rx="16" />
    </clipPath>
  </defs>
</svg>