<svg width="32" height="32" viewBox="0 0 32 32" fill="none" xmlns="http://www.w3.org/2000/svg">
<g clip-path="url(#clip0_217_7)">
<path d="M5.77778 28.4444C5.77778 30.4 7.37778 32 9.33333 32H23.5556C25.5111 32 27.1111 30.4 27.1111 28.4444V7.11111H5.77778V28.4444ZM11.4133 17.0489C10.72 16.3556 10.72 15.2356 11.4133 14.5422C12.1067 13.8489 13.2267 13.8489 13.92 14.5422L16.4444 17.0489L18.9511 14.5422C19.6444 13.8489 20.7644 13.8489 21.4578 14.5422C22.1511 15.2356 22.1511 16.3556 21.4578 17.0489L18.9511 19.5556L21.4578 22.0622C22.1511 22.7556 22.1511 23.8756 21.4578 24.5689C20.7644 25.2622 19.6444 25.2622 18.9511 24.5689L16.4444 22.0622L13.9378 24.5689C13.2444 25.2622 12.1244 25.2622 11.4311 24.5689C10.7378 23.8756 10.7378 22.7556 11.4311 22.0622L13.9378 19.5556L11.4133 17.0489ZM27.1111 1.77778H22.6667L21.4044 0.515555C21.0844 0.195555 20.6222 0 20.16 0H12.7289C12.2667 0 11.8044 0.195555 11.4844 0.515555L10.2222 1.77778H5.77778C4.8 1.77778 4 2.57778 4 3.55556C4 4.53333 4.8 5.33333 5.77778 5.33333H27.1111C28.0889 5.33333 28.8889 4.53333 28.8889 3.55556C28.8889 2.57778 28.0889 1.77778 27.1111 1.77778Z" fill="#E8EAED"/>
</g>
<defs>
<clipPath id="clip0_217_7">
<rect width="32px" height="32px" fill="white"/>
</clipPath>
</defs>
</svg>
