<svg width="32" height="32" viewBox="0 0 32 32" fill="none" xmlns="http://www.w3.org/2000/svg">
<g clip-path="url(#clip0_42_10)">
<path d="M20 15.9999C22.9467 15.9999 25.3334 13.6133 25.3334 10.6666C25.3334 7.71992 22.9467 5.33325 20 5.33325C17.0534 5.33325 14.6667 7.71992 14.6667 10.6666C14.6667 13.6133 17.0534 15.9999 20 15.9999ZM8.00004 13.3333V10.6666C8.00004 9.93325 7.40004 9.33325 6.66671 9.33325C5.93337 9.33325 5.33337 9.93325 5.33337 10.6666V13.3333H2.66671C1.93337 13.3333 1.33337 13.9333 1.33337 14.6666C1.33337 15.3999 1.93337 15.9999 2.66671 15.9999H5.33337V18.6666C5.33337 19.3999 5.93337 19.9999 6.66671 19.9999C7.40004 19.9999 8.00004 19.3999 8.00004 18.6666V15.9999H10.6667C11.4 15.9999 12 15.3999 12 14.6666C12 13.9333 11.4 13.3333 10.6667 13.3333H8.00004ZM20 18.6666C16.44 18.6666 9.33337 20.4533 9.33337 23.9999V25.3333C9.33337 26.0666 9.93337 26.6666 10.6667 26.6666H29.3334C30.0667 26.6666 30.6667 26.0666 30.6667 25.3333V23.9999C30.6667 20.4533 23.56 18.6666 20 18.6666Z" fill="#D9D9D9"/>
</g>
<defs>
<clipPath id="clip0_42_10">
<rect width="32" height="32" fill="white"/>
</clipPath>
</defs>
</svg>
