<svg width="32" height="32" viewBox="0 0 32 32" fill="none" xmlns="http://www.w3.org/2000/svg">
<g clip-path="url(#clip0_71_20)">
<path d="M19.9999 15.9999C22.9466 15.9999 25.3333 13.6133 25.3333 10.6666C25.3333 7.71992 22.9466 5.33325 19.9999 5.33325C17.0533 5.33325 14.6666 7.71992 14.6666 10.6666C14.6666 13.6133 17.0533 15.9999 19.9999 15.9999ZM7.99992 13.3333V10.6666C7.99992 9.93325 7.39992 9.33325 6.66659 9.33325C5.93325 9.33325 5.33325 9.93325 5.33325 10.6666V13.3333H2.66659C1.93325 13.3333 1.33325 13.9333 1.33325 14.6666C1.33325 15.3999 1.93325 15.9999 2.66659 15.9999H5.33325V18.6666C5.33325 19.3999 5.93325 19.9999 6.66659 19.9999C7.39992 19.9999 7.99992 19.3999 7.99992 18.6666V15.9999H10.6666C11.3999 15.9999 11.9999 15.3999 11.9999 14.6666C11.9999 13.9333 11.3999 13.3333 10.6666 13.3333H7.99992ZM19.9999 18.6666C16.4399 18.6666 9.33325 20.4533 9.33325 23.9999V25.3333C9.33325 26.0666 9.93325 26.6666 10.6666 26.6666H29.3333C30.0666 26.6666 30.6666 26.0666 30.6666 25.3333V23.9999C30.6666 20.4533 23.5599 18.6666 19.9999 18.6666Z" fill="#2B2B2B"/>
</g>
<defs>
<clipPath id="clip0_71_20">
<rect width="32" height="32" fill="white"/>
</clipPath>
</defs>
</svg>
