<svg width="32" height="32" viewBox="0 0 32 32" fill="none" xmlns="http://www.w3.org/2000/svg">
    <g clip-path="url(#clip0_8_1158)">
        <path
            d="M6.66667 6.53728H14.6667C15.4 6.53728 16 5.94892 16 5.22982C16 4.51072 15.4 3.92236 14.6667 3.92236H6.66667C5.2 3.92236 4 5.09907 4 6.53728V24.8417C4 26.2799 5.2 27.4566 6.66667 27.4566H14.6667C15.4 27.4566 16 26.8682 16 26.1491C16 25.43 15.4 24.8417 14.6667 24.8417H6.66667V6.53728Z"
            fill="#FF3653" />
        <path
            d="M27.5333 15.2319L23.8133 11.5841C23.3867 11.1657 22.6667 11.4534 22.6667 12.0417V14.3821H13.3333C12.6 14.3821 12 14.9704 12 15.6895C12 16.4086 12.6 16.997 13.3333 16.997H22.6667V19.3373C22.6667 19.9257 23.3867 20.2133 23.8 19.7949L27.52 16.1471C27.7867 15.8987 27.7867 15.4803 27.5333 15.2319Z"
            fill="#FF3653" />
    </g>
    <defs>
        <clipPath id="clip0_8_1158">
            <rect width="32" height="31.379" rx="15.6895" fill="white" />
        </clipPath>
    </defs>
</svg>