<svg width="32" height="32" viewBox="0 0 32 32" fill="none" xmlns="http://www.w3.org/2000/svg">
<g clip-path="url(#clip0_71_2)">
<path d="M16.0001 2.61499C8.64008 2.61499 2.66675 8.4724 2.66675 15.6896C2.66675 22.9067 8.64008 28.7641 16.0001 28.7641C23.3601 28.7641 29.3334 22.9067 29.3334 15.6896C29.3334 8.4724 23.3601 2.61499 16.0001 2.61499ZM16.0001 7.84482C18.5734 7.84482 20.6667 9.89752 20.6667 12.4209C20.6667 14.9443 18.5734 16.997 16.0001 16.997C13.4267 16.997 11.3334 14.9443 11.3334 12.4209C11.3334 9.89752 13.4267 7.84482 16.0001 7.84482ZM16.0001 26.1492C13.2934 26.1492 10.0934 25.0771 7.81341 22.3837C10.0667 20.6579 12.9067 19.6119 16.0001 19.6119C19.0934 19.6119 21.9334 20.6579 24.1867 22.3837C21.9067 25.0771 18.7067 26.1492 16.0001 26.1492Z" fill="#2B2B2B"/>
</g>
<defs>
<clipPath id="clip0_71_2">
<rect width="32" height="31.379" rx="15.6895" fill="white"/>
</clipPath>
</defs>
</svg>
