<svg width="32" height="32" viewBox="0 0 32 32" fill="none" xmlns="http://www.w3.org/2000/svg">
  <g clip-path="url(#clip0_8_1152)">
    <path
      d="M16 2.61499C8.63996 2.61499 2.66663 8.4724 2.66663 15.6896C2.66663 22.9067 8.63996 28.7641 16 28.7641C23.36 28.7641 29.3333 22.9067 29.3333 15.6896C29.3333 8.4724 23.36 2.61499 16 2.61499ZM16 7.84482C18.5733 7.84482 20.6666 9.89752 20.6666 12.4209C20.6666 14.9443 18.5733 16.997 16 16.997C13.4266 16.997 11.3333 14.9443 11.3333 12.4209C11.3333 9.89752 13.4266 7.84482 16 7.84482ZM16 26.1492C13.2933 26.1492 10.0933 25.0771 7.81329 22.3837C10.0666 20.6579 12.9066 19.6119 16 19.6119C19.0933 19.6119 21.9333 20.6579 24.1866 22.3837C21.9066 25.0771 18.7066 26.1492 16 26.1492Z"
      fill="#DCDCDC" 
      />
  </g>
  <defs>
    <clipPath id="clip0_8_1152">
      <rect width="32" height="31.379" rx="15.6895" fill="white" />
    </clipPath>
  </defs>
</svg>