<svg width="32" height="32" viewBox="0 0 32 32" fill="none" xmlns="http://www.w3.org/2000/svg">
<g clip-path="url(#clip0_8_1120)">
<path d="M26.6666 5.33325H5.33329C3.85329 5.33325 2.66663 6.53325 2.66663 7.99992V23.9999C2.66663 25.4666 3.85329 26.6666 5.33329 26.6666H26.6666C28.1333 26.6666 29.3333 25.4666 29.3333 23.9999V7.99992C29.3333 6.53325 28.1466 5.33325 26.6666 5.33325ZM26.6666 23.9999H5.33329V10.6666H26.6666V23.9999ZM16 21.3333C16 20.5999 16.6 19.9999 17.3333 19.9999H22.6666C23.4 19.9999 24 20.5999 24 21.3333C24 22.0666 23.4 22.6666 22.6666 22.6666H17.3333C16.6 22.6666 16 22.0666 16 21.3333ZM9.05329 12.9466C9.57329 12.4266 10.4133 12.4266 10.9333 12.9466L14.3866 16.3999C14.9066 16.9199 14.9066 17.7599 14.3866 18.2799L10.9333 21.7333C10.4133 22.2533 9.57329 22.2533 9.05329 21.7333C8.53329 21.2133 8.53329 20.3733 9.05329 19.8533L11.56 17.3333L9.05329 14.8266C8.53329 14.3066 8.53329 13.4666 9.05329 12.9466Z" fill="#DCDCDC"/>
</g>
<defs>
<clipPath id="clip0_8_1120">
<rect width="32" height="32" fill="white"/>
</clipPath>
</defs>
</svg>
