<svg width="32" height="32" viewBox="0 0 32 32" fill="none" xmlns="http://www.w3.org/2000/svg">
<g clip-path="url(#clip0_224_7)">
<path d="M29.6 4.80005H2.4C1.072 4.80005 0 5.87205 0 7.20005V24.8C0 26.128 1.072 27.2 2.4 27.2H29.6C30.928 27.2 32 26.128 32 24.8V7.20005C32 5.87205 30.928 4.80005 29.6 4.80005ZM11.2 11.2C13.408 11.2 15.2 12.992 15.2 15.2C15.2 17.408 13.408 19.2 11.2 19.2C8.992 19.2 7.2 17.408 7.2 15.2C7.2 12.992 8.992 11.2 11.2 11.2ZM2.624 24.8C4.688 22.352 7.76 20.8 11.2 20.8C14.64 20.8 17.712 22.352 19.776 24.8H2.624ZM27.472 15.6C27.248 15.984 26.768 16.112 26.384 15.888L24.8 14.992V16.8C24.8 17.248 24.448 17.6 24 17.6C23.552 17.6 23.2 17.248 23.2 16.8V14.992L21.632 15.904C21.248 16.128 20.768 16 20.544 15.616C20.32 15.232 20.448 14.752 20.832 14.528L22.4 13.6L20.832 12.688C20.448 12.464 20.32 11.984 20.544 11.6C20.768 11.216 21.248 11.088 21.632 11.312L23.2 12.224V10.4C23.2 9.95205 23.552 9.60005 24 9.60005C24.448 9.60005 24.8 9.95205 24.8 10.4V12.208L26.368 11.296C26.752 11.072 27.232 11.2 27.456 11.584C27.68 11.968 27.552 12.448 27.168 12.672L25.6 13.6L27.168 14.512C27.552 14.736 27.68 15.216 27.472 15.6Z" fill="#E8EAED" fill-opacity="0.5"/>
</g>
<defs>
<clipPath id="clip0_224_7">
<rect width="32" height="32" fill="white"/>
</clipPath>
</defs>
</svg>
