<svg width="32" height="32" viewBox="0 0 32 32" fill="none" xmlns="http://www.w3.org/2000/svg">
<g clip-path="url(#clip0_8_1805)">
<path d="M24 17.3334H17.3334V24.0001C17.3334 24.7334 16.7334 25.3334 16 25.3334C15.2667 25.3334 14.6667 24.7334 14.6667 24.0001V17.3334H8.00002C7.26669 17.3334 6.66669 16.7334 6.66669 16.0001C6.66669 15.2667 7.26669 14.6667 8.00002 14.6667H14.6667V8.00008C14.6667 7.26675 15.2667 6.66675 16 6.66675C16.7334 6.66675 17.3334 7.26675 17.3334 8.00008V14.6667H24C24.7334 14.6667 25.3334 15.2667 25.3334 16.0001C25.3334 16.7334 24.7334 17.3334 24 17.3334Z" fill="#2B2B2B"/>
</g>
<defs>
<clipPath id="clip0_8_1805">
<rect width="32" height="32" fill="white"/>
</clipPath>
</defs>
</svg>
