<svg width="32" height="32" viewBox="0 0 32 32" fill="none" xmlns="http://www.w3.org/2000/svg">
<path d="M4.45008 18.1525V22.4533C4.45008 23.5706 5.0623 24.6114 6.04185 25.1471L13.6946 29.3255C14.6129 29.8306 15.7149 29.8306 16.6333 29.3255L24.286 25.1471C25.2656 24.6114 25.8778 23.5706 25.8778 22.4533V18.1525L16.6333 23.2033C15.7149 23.7084 14.6129 23.7084 13.6946 23.2033L4.45008 18.1525ZM13.6946 3.36733L0.79206 10.4079C-0.26402 10.9895 -0.26402 12.52 0.79206 13.1016L13.6946 20.1422C14.6129 20.6473 15.7149 20.6473 16.6333 20.1422L28.9389 13.4231V22.4686C28.9389 23.3104 29.6276 23.9992 30.4694 23.9992C31.3113 23.9992 32 23.3104 32 22.4686V12.6578C32 12.0915 31.6939 11.5864 31.2041 11.3109L16.6333 3.36733C15.7149 2.87756 14.6129 2.87756 13.6946 3.36733Z" fill="#2B2B2B"/>
</svg>
